<svg height="141.732" width="141.732" xmlns="http://www.w3.org/2000/svg"><path fill="#ffffff" d="M114.944 118.188h-14.396v14.752a7.196 7.196 0 1 0 14.391 0l.005-14.752zm-73.762 0H26.787v14.752a7.197 7.197 0 1 0 14.392 0l.003-14.752zm73.941-55.491a3.687 3.687 0 0 1-3.688 3.688H30.296a3.688 3.688 0 0 1-3.688-3.688V25.809a3.69 3.69 0 0 1 3.696-3.683h81.126l.004-.002a3.685 3.685 0 0 1 3.688 3.685l.001 36.888zm-14.752-51.633a3.688 3.688 0 0 1-3.688 3.688H44.96c-1.987 0-3.604-1.649-3.604-3.688s1.612-3.688 3.604-3.688h51.722a3.688 3.688 0 0 1 3.689 3.688m-73.584 77.45c0-3.881 3.224-7.025 7.194-7.025 3.979 0 7.198 3.146 7.198 7.025s-3.222 7.021-7.198 7.021c-3.971.002-7.194-3.142-7.194-7.021m29.506-5.534a3.51 3.51 0 0 1 3.39-3.504v-.006h22.07v.01c.059-.004.117-.01.178-.01a3.509 3.509 0 0 1 3.51 3.51 3.507 3.507 0 0 1-3.51 3.51c-.061 0-.119-.006-.178-.009v.009h-22.07v-.006a3.505 3.505 0 0 1-3.39-3.504m0 11.065a3.51 3.51 0 0 1 3.39-3.504v-.006h22.07v.01c.059-.004.117-.01.178-.01a3.51 3.51 0 0 1 3.51 3.51 3.51 3.51 0 0 1-3.51 3.513c-.061 0-.119-.006-.178-.011v.011h-22.07v-.006a3.51 3.51 0 0 1-3.39-3.507m44.256-5.531c0-3.881 3.222-7.025 7.197-7.025s7.194 3.146 7.194 7.025-3.223 7.021-7.194 7.021c-3.976.002-7.197-3.142-7.197-7.021M122.5 7.377v-.002A7.378 7.378 0 0 0 115.123 0H26.608a7.377 7.377 0 0 0-7.376 7.375v103.438a7.2 7.2 0 0 0 7.198 7.197c.06 0 .117-.009.178-.011v.188h88.515a7.38 7.38 0 0 0 7.377-7.377V7.377z"/></svg>